<mxfile host="app.diagrams.net" agent="Mozilla/5.0 (X11; Linux x86_64) AppleWebKit/537.36 (KHTML, like Gecko) Chrome/130.0.0.0 Safari/537.36" version="24.7.6">
  <diagram id="C5RBs43oDa-KdzZeNtuy" name="Page-1">
    <mxGraphModel dx="580" dy="804" grid="1" gridSize="10" guides="1" tooltips="1" connect="1" arrows="1" fold="1" page="1" pageScale="1" pageWidth="827" pageHeight="1169" math="0" shadow="0">
      <root>
        <mxCell id="WIyWlLk6GJQsqaUBKTNV-0" />
        <mxCell id="WIyWlLk6GJQsqaUBKTNV-1" parent="WIyWlLk6GJQsqaUBKTNV-0" />
        <mxCell id="tlkT88jfOLYmO0QSqmTe-1" value="" style="edgeStyle=orthogonalEdgeStyle;rounded=0;orthogonalLoop=1;jettySize=auto;html=1;" edge="1" parent="WIyWlLk6GJQsqaUBKTNV-1" source="WIyWlLk6GJQsqaUBKTNV-10" target="tlkT88jfOLYmO0QSqmTe-0">
          <mxGeometry relative="1" as="geometry" />
        </mxCell>
        <mxCell id="tlkT88jfOLYmO0QSqmTe-9" value="" style="edgeStyle=orthogonalEdgeStyle;rounded=0;orthogonalLoop=1;jettySize=auto;html=1;" edge="1" parent="WIyWlLk6GJQsqaUBKTNV-1" source="WIyWlLk6GJQsqaUBKTNV-10" target="tlkT88jfOLYmO0QSqmTe-8">
          <mxGeometry relative="1" as="geometry" />
        </mxCell>
        <mxCell id="WIyWlLk6GJQsqaUBKTNV-10" value="Page&lt;br&gt;walk?" style="rhombus;whiteSpace=wrap;html=1;shadow=0;fontFamily=Helvetica;fontSize=12;align=center;strokeWidth=1;spacing=6;spacingTop=-4;fillColor=#fff2cc;strokeColor=#d6b656;" parent="WIyWlLk6GJQsqaUBKTNV-1" vertex="1">
          <mxGeometry x="160" y="290" width="120" height="80" as="geometry" />
        </mxCell>
        <mxCell id="tlkT88jfOLYmO0QSqmTe-3" value="" style="edgeStyle=orthogonalEdgeStyle;rounded=0;orthogonalLoop=1;jettySize=auto;html=1;entryX=0;entryY=0.5;entryDx=0;entryDy=0;" edge="1" parent="WIyWlLk6GJQsqaUBKTNV-1" source="tlkT88jfOLYmO0QSqmTe-0" target="tlkT88jfOLYmO0QSqmTe-14">
          <mxGeometry relative="1" as="geometry">
            <mxPoint x="510" y="330" as="targetPoint" />
          </mxGeometry>
        </mxCell>
        <mxCell id="tlkT88jfOLYmO0QSqmTe-11" value="" style="edgeStyle=orthogonalEdgeStyle;rounded=0;orthogonalLoop=1;jettySize=auto;html=1;entryX=0;entryY=0.5;entryDx=0;entryDy=0;" edge="1" parent="WIyWlLk6GJQsqaUBKTNV-1" source="tlkT88jfOLYmO0QSqmTe-0" target="tlkT88jfOLYmO0QSqmTe-13">
          <mxGeometry relative="1" as="geometry">
            <mxPoint x="415" y="464" as="targetPoint" />
            <Array as="points">
              <mxPoint x="364" y="464" />
            </Array>
          </mxGeometry>
        </mxCell>
        <mxCell id="tlkT88jfOLYmO0QSqmTe-0" value="Access to&lt;div&gt;enclave from&lt;/div&gt;&lt;div&gt;non-enclave&lt;/div&gt;" style="rhombus;whiteSpace=wrap;html=1;shadow=0;fontFamily=Helvetica;fontSize=12;align=center;strokeWidth=1;spacing=6;spacingTop=-4;fillColor=#fff2cc;strokeColor=#d6b656;" vertex="1" parent="WIyWlLk6GJQsqaUBKTNV-1">
          <mxGeometry x="310" y="290" width="110" height="80" as="geometry" />
        </mxCell>
        <mxCell id="tlkT88jfOLYmO0QSqmTe-8" value="Page fault" style="rounded=1;whiteSpace=wrap;html=1;shadow=0;strokeWidth=1;spacing=6;spacingTop=-4;fillColor=#f8cecc;strokeColor=#b85450;" vertex="1" parent="WIyWlLk6GJQsqaUBKTNV-1">
          <mxGeometry x="180" y="449" width="80" height="30" as="geometry" />
        </mxCell>
        <mxCell id="tlkT88jfOLYmO0QSqmTe-12" style="edgeStyle=orthogonalEdgeStyle;rounded=0;orthogonalLoop=1;jettySize=auto;html=1;entryX=0.5;entryY=1;entryDx=0;entryDy=0;exitX=1;exitY=0.5;exitDx=0;exitDy=0;" edge="1" parent="WIyWlLk6GJQsqaUBKTNV-1" source="tlkT88jfOLYmO0QSqmTe-13" target="tlkT88jfOLYmO0QSqmTe-14">
          <mxGeometry relative="1" as="geometry">
            <mxPoint x="535" y="464" as="sourcePoint" />
            <mxPoint x="565" y="360" as="targetPoint" />
            <Array as="points">
              <mxPoint x="550" y="464" />
              <mxPoint x="550" y="345" />
            </Array>
          </mxGeometry>
        </mxCell>
        <mxCell id="tlkT88jfOLYmO0QSqmTe-13" value="Abort page" style="rounded=1;whiteSpace=wrap;html=1;shadow=0;strokeWidth=1;spacing=6;spacingTop=-4;fillColor=#f8cecc;strokeColor=#b85450;" vertex="1" parent="WIyWlLk6GJQsqaUBKTNV-1">
          <mxGeometry x="420" y="449" width="80" height="30" as="geometry" />
        </mxCell>
        <mxCell id="tlkT88jfOLYmO0QSqmTe-14" value="Allow" style="rounded=1;whiteSpace=wrap;html=1;shadow=0;strokeWidth=1;spacing=6;spacingTop=-4;fillColor=#d5e8d4;strokeColor=#82b366;" vertex="1" parent="WIyWlLk6GJQsqaUBKTNV-1">
          <mxGeometry x="510" y="315" width="80" height="30" as="geometry" />
        </mxCell>
        <mxCell id="tlkT88jfOLYmO0QSqmTe-15" value="fail" style="text;html=1;align=center;verticalAlign=middle;resizable=0;points=[];autosize=1;strokeColor=none;fillColor=none;" vertex="1" parent="WIyWlLk6GJQsqaUBKTNV-1">
          <mxGeometry x="210" y="408" width="40" height="30" as="geometry" />
        </mxCell>
        <mxCell id="tlkT88jfOLYmO0QSqmTe-16" value="No" style="text;html=1;align=center;verticalAlign=middle;resizable=0;points=[];autosize=1;strokeColor=none;fillColor=none;" vertex="1" parent="WIyWlLk6GJQsqaUBKTNV-1">
          <mxGeometry x="440" y="300" width="40" height="30" as="geometry" />
        </mxCell>
        <mxCell id="tlkT88jfOLYmO0QSqmTe-17" value="ok" style="text;html=1;align=center;verticalAlign=middle;resizable=0;points=[];autosize=1;strokeColor=none;fillColor=none;" vertex="1" parent="WIyWlLk6GJQsqaUBKTNV-1">
          <mxGeometry x="274" y="300" width="40" height="30" as="geometry" />
        </mxCell>
        <mxCell id="tlkT88jfOLYmO0QSqmTe-18" value="Yes" style="text;html=1;align=center;verticalAlign=middle;resizable=0;points=[];autosize=1;strokeColor=none;fillColor=none;" vertex="1" parent="WIyWlLk6GJQsqaUBKTNV-1">
          <mxGeometry x="360" y="390" width="40" height="30" as="geometry" />
        </mxCell>
      </root>
    </mxGraphModel>
  </diagram>
</mxfile>
